<?xml version="1.0" encoding="UTF-8"?>
<svg id="ST_-_VER_-_NEG" data-name="ST - VER - NEG" xmlns="http://www.w3.org/2000/svg" viewBox="0 0 283.46 283.46">
  <defs>
    <style>
      .cls-1 {
        fill: #fff;
      }

      .cls-2 {
        fill: #ff7900;
      }
    </style>
  </defs>
  <path class="cls-2" d="m93.43,142.25l-3.82-1.45c-17.12-6.64-26.86-12.39-31.83-15.62-.3-.19-.73.17-.73.53,0,1.57.69,4.62,3.25,8.71.34.54.82.97,1.44,1.08,5.8,1,18.3,3.27,26.64,6.24l3.99,1.41c12.75,4.54,23.14,11.97,27.81,14.6.32.18.65-.12.6-.49-.64-4.56-2.14-6.83-2.97-8.16-.25-.4-.59-.72-1.04-.8-2.72-.43-10.21-1.22-23.33-6.05Z"/>
  <path class="cls-1" d="m89.75,142.43c-3.57,3.57-4.81,7.43-5.9,10.84-.62,1.94-1.21,3.77-2.18,5.2-.1.14-.74.95-.89,1.09-1.27,1.27-2.97,1.98-4.77,1.98s-3.5-.7-4.77-1.98c-.16-.16-.8-.97-.9-1.11-.93-1.4-1.62-3.16-2.12-5.09-1.08-4.2-3.65-8.59-7.26-12.2-3.77-3.77-8.15-5.91-11.66-7.03-2.39-.77-4.46-1.43-5.8-2.77-1.27-1.27-1.97-2.97-1.97-4.77s.7-3.5,1.97-4.77c1.28-1.28,2.97-1.98,4.77-1.98s3.5.7,4.77,1.98c1.44,1.44,2.13,3.6,2.93,6.09,1.11,3.46,2.76,8.23,6.38,11.85,1.42,1.42,3.39,3.52,6.57,5.06,2.19,1.06,4.65,1.6,7.09,1.6s4.93-.57,7.13-1.63c2.05-.99,3.78-2.33,5.2-3.75h0c3.57-3.58,4.81-7.44,5.9-10.84.62-1.94,1.21-3.77,2.18-5.2.1-.14.74-.95.89-1.09,1.27-1.27,2.97-1.98,4.77-1.98s3.5.7,4.77,1.98c.16.16.8.97.9,1.11.93,1.4,1.62,3.16,2.12,5.09,1.08,4.2,3.65,8.59,7.26,12.2,3.77,3.77,8.15,5.91,11.66,7.03,2.39.77,4.46,1.43,5.8,2.77,1.27,1.27,1.97,2.97,1.97,4.77s-.7,3.5-1.97,4.77c-1.28,1.28-2.97,1.98-4.77,1.98s-3.5-.7-4.77-1.98c-1.44-1.44-2.13-3.6-2.93-6.09-1.11-3.46-2.76-8.23-6.38-11.85-1.42-1.42-3.39-3.52-6.57-5.06-2.19-1.06-4.65-1.6-7.09-1.6s-4.93.57-7.13,1.63c-2.05.99-3.78,2.33-5.2,3.75h0Z"/>
  <path class="cls-1" d="m161.77,140.61c0,2.46-2,4.46-4.46,4.46h-9.23c-.74,0-1.36-.59-1.36-1.36s.62-1.34,1.36-1.34h9.23c.98,0,1.76-.79,1.76-1.76s-.79-1.76-1.76-1.76h-7.03c-2.46,0-4.46-2.02-4.46-4.46s2-4.48,4.46-4.48h9.23c.74,0,1.36.62,1.36,1.36s-.62,1.34-1.36,1.34h-9.23c-.98,0-1.76.81-1.76,1.78s.79,1.76,1.76,1.76h7.03c2.46,0,4.46,2,4.46,4.46Z"/>
  <path class="cls-1" d="m185.04,131.27v12.44c0,.76-.59,1.36-1.34,1.36s-1.36-.59-1.36-1.36v-9.28l-6.73,6.47c-.49.49-1.38.49-1.87,0l-6.73-6.47v9.28c0,.76-.62,1.36-1.36,1.36s-1.34-.59-1.34-1.36v-12.44c0-.55.32-1.04.81-1.25.51-.21,1.08-.11,1.46.28l8.09,7.77,8.09-7.77c.38-.38.96-.49,1.46-.28.49.21.81.7.81,1.25Z"/>
  <path class="cls-1" d="m205.7,143.16c.3.68,0,1.49-.68,1.78-.17.08-.36.13-.55.13-.51,0-1-.3-1.23-.79l-4.71-10.38c-.36-.79-1.17-1.27-2.02-1.27s-1.66.49-2.02,1.27l-4.73,10.38c-.3.68-1.1.98-1.78.66-.68-.3-.98-1.1-.66-1.78l4.71-10.36c.81-1.74,2.55-2.89,4.48-2.89s3.67,1.15,4.46,2.89l4.73,10.36Z"/>
  <path class="cls-2" d="m198.93,140.19c0,1.34-1.08,2.42-2.42,2.42s-2.42-1.08-2.42-2.42,1.08-2.42,2.42-2.42,2.42,1.08,2.42,2.42Z"/>
  <path class="cls-1" d="m225.11,143.71c0,.76-.62,1.36-1.36,1.36h-2.17c-.38,0-.74-.15-1-.42l-4.12-4.46h-5.82v3.52c0,.76-.62,1.36-1.36,1.36s-1.34-.59-1.34-1.36v-4.88c0-.74.59-1.36,1.34-1.36h9.47c1.34,0,2.44-1.08,2.44-2.42s-1.1-2.44-2.44-2.44h-9.47c-.74,0-1.34-.59-1.34-1.34s.59-1.36,1.34-1.36h9.47c1.38,0,2.65.55,3.63,1.51.98.98,1.51,2.25,1.51,3.63s-.53,2.65-1.51,3.63c-.66.66-1.49,1.13-2.38,1.34l2.17,2.36h1.57c.74,0,1.36.59,1.36,1.34Z"/>
  <path class="cls-1" d="m241.48,131.27c0,.74-.59,1.34-1.34,1.34h-5.29v11.1c0,.76-.59,1.36-1.34,1.36s-1.36-.59-1.36-1.36v-11.1h-5.27c-.74,0-1.36-.59-1.36-1.34s.62-1.36,1.36-1.36h13.25c.74,0,1.34.62,1.34,1.36Z"/>
  <g>
    <path class="cls-1" d="m152.22,150.78h-2.4v3.08h-.83v-3.08h-2.4v-.68h5.63v.68Z"/>
    <path class="cls-1" d="m156.37,150.11c1.05,0,1.39.15,1.65.42.2.2.28.51.28.83s-.08.61-.31.83c-.2.21-.52.38-1.24.42l2.02,1.24v.02h-1.26l-1.99-1.25h-1.49v1.25h-.83v-3.76h3.15Zm-2.31,1.86h2.33c.59,0,.84-.08.97-.21.09-.09.13-.2.13-.38,0-.17-.05-.3-.15-.4-.13-.13-.35-.19-.95-.19h-2.33v1.18Z"/>
    <path class="cls-1" d="m162.79,150.09l2.62,3.78h-.96l-.6-.89h-3.28l-.6.89h-.92l2.62-3.78h1.13Zm-1.77,2.23h2.38l-1.19-1.76-1.19,1.76Z"/>
    <path class="cls-1" d="m170.83,153.14v-3.04h.83v3.76h-1.17l-3.44-3.09v3.09h-.83v-3.76h1.22l3.38,3.04Z"/>
    <path class="cls-1" d="m177.09,153.07c.08-.07.1-.17.1-.26,0-.11-.03-.2-.09-.26-.12-.12-.34-.17-1.67-.24-1.5-.08-1.96-.2-2.21-.46-.15-.15-.21-.36-.21-.63s.06-.53.26-.74c.26-.26.78-.45,2.1-.45,1.05,0,1.84.15,2.34.35v.7c-.57-.24-1.51-.42-2.34-.42-1.03,0-1.32.1-1.44.22-.06.06-.09.15-.09.25,0,.1.03.18.08.23.11.11.37.18,1.59.24,1.58.08,2.02.2,2.28.46.15.15.23.38.23.65s-.06.54-.26.74c-.27.27-.8.48-2.21.48-1.04,0-2.06-.17-2.64-.42v-.7c.56.27,1.75.49,2.64.49,1.05,0,1.39-.09,1.54-.24Z"/>
    <path class="cls-1" d="m183.91,151.71v.67h-3.86v1.49h-.83v-3.76h4.77v.68h-3.94v.93h3.86Z"/>
    <path class="cls-1" d="m190.31,150.67c.33.33.49.75.49,1.32s-.16.98-.49,1.32c-.36.36-1.06.67-2.47.67s-2.11-.31-2.47-.67c-.34-.34-.49-.75-.49-1.32s.16-.98.49-1.32c.37-.37,1.07-.67,2.47-.67s2.11.31,2.47.67Zm-4.28.43c-.21.21-.32.46-.32.88s.11.66.33.88c.24.24.77.46,1.79.46s1.56-.2,1.81-.46c.2-.2.31-.45.31-.88s-.12-.67-.32-.87c-.25-.25-.78-.46-1.8-.46s-1.56.2-1.8.45Z"/>
    <path class="cls-1" d="m195.12,150.11c1.05,0,1.39.15,1.65.42.2.2.28.51.28.83s-.08.61-.31.83c-.2.21-.52.38-1.24.42l2.02,1.24v.02h-1.26l-1.99-1.25h-1.49v1.25h-.83v-3.76h3.15Zm-2.31,1.86h2.33c.59,0,.84-.08.97-.21.09-.09.13-.2.13-.38,0-.17-.05-.3-.15-.4-.13-.13-.35-.19-.95-.19h-2.33v1.18Z"/>
    <path class="cls-1" d="m205.54,153.87h-.83v-3.15l-2.18,3.15h-1.13l-2.18-3.15v3.15h-.83v-3.76h1.36l2.23,3.24,2.23-3.24h1.33v3.76Z"/>
    <path class="cls-1" d="m210.11,150.09l2.62,3.78h-.96l-.6-.89h-3.28l-.6.89h-.92l2.62-3.78h1.13Zm-1.77,2.23h2.38l-1.19-1.76-1.19,1.76Z"/>
    <path class="cls-1" d="m218.07,150.78h-2.4v3.08h-.83v-3.08h-2.4v-.68h5.63v.68Z"/>
    <path class="cls-1" d="m219.11,153.87v-3.76h.83v3.76h-.83Z"/>
    <path class="cls-1" d="m226.6,150.67c.33.33.49.75.49,1.32s-.16.98-.49,1.32c-.36.36-1.06.67-2.47.67s-2.11-.31-2.47-.67c-.34-.34-.49-.75-.49-1.32s.16-.98.49-1.32c.37-.37,1.07-.67,2.47-.67s2.11.31,2.47.67Zm-4.28.43c-.21.21-.32.46-.32.88s.11.66.33.88c.24.24.77.46,1.79.46s1.56-.2,1.81-.46c.2-.2.31-.45.31-.88s-.12-.67-.32-.87c-.25-.25-.78-.46-1.8-.46s-1.56.2-1.8.45Z"/>
    <path class="cls-1" d="m232.86,153.14v-3.04h.83v3.76h-1.17l-3.44-3.09v3.09h-.83v-3.76h1.22l3.38,3.04Z"/>
    <path class="cls-1" d="m239.11,153.07c.08-.07.1-.17.1-.26,0-.11-.03-.2-.09-.26-.12-.12-.34-.17-1.67-.24-1.5-.08-1.96-.2-2.21-.46-.15-.15-.21-.36-.21-.63s.06-.53.26-.74c.26-.26.78-.45,2.1-.45,1.05,0,1.84.15,2.34.35v.7c-.57-.24-1.51-.42-2.34-.42-1.03,0-1.32.1-1.44.22-.06.06-.09.15-.09.25,0,.1.03.18.08.23.11.11.37.18,1.59.24,1.58.08,2.02.2,2.28.46.15.15.23.38.23.65s-.06.54-.26.74c-.27.27-.8.48-2.21.48-1.04,0-2.06-.17-2.64-.42v-.7c.56.27,1.75.49,2.64.49,1.05,0,1.39-.09,1.54-.24Z"/>
  </g>
</svg>