<?xml version="1.0" encoding="UTF-8"?>
<svg id="ST_-_VER_-_NEG-2" data-name="ST - VER - NEG" xmlns="http://www.w3.org/2000/svg" viewBox="0 0 351.78 204.29">
  <defs>
    <style>
      .cls-1 {
        fill: #fff;
      }

      .cls-2 {
        fill: #ff7900;
      }
    </style>
  </defs>
  <path class="cls-2" d="m176.76,77.06l-4.99-1.89c-22.37-8.68-35.1-16.2-41.6-20.41-.39-.25-.95.22-.95.69,0,2.05.9,6.03,4.24,11.38.44.71,1.07,1.27,1.88,1.41,7.58,1.31,23.91,4.28,34.81,8.16l5.22,1.84c16.66,5.93,30.24,15.65,36.35,19.08.42.24.85-.16.78-.64-.83-5.96-2.8-8.93-3.89-10.66-.33-.52-.76-.94-1.36-1.04-3.55-.56-13.35-1.59-30.49-7.91Z"/>
  <path class="cls-1" d="m171.94,77.3c-4.67,4.67-6.28,9.71-7.7,14.16-.81,2.53-1.58,4.92-2.84,6.8-.13.18-.97,1.24-1.16,1.43-1.67,1.67-3.88,2.58-6.24,2.58s-4.57-.92-6.24-2.58c-.21-.21-1.05-1.26-1.17-1.45-1.22-1.83-2.12-4.13-2.77-6.65-1.42-5.49-4.77-11.22-9.49-15.94-4.93-4.93-10.65-7.72-15.24-9.19-3.13-1-5.83-1.87-7.58-3.61-1.66-1.66-2.58-3.88-2.58-6.24s.92-4.57,2.58-6.24c1.67-1.67,3.88-2.58,6.24-2.58s4.57.92,6.24,2.58c1.89,1.89,2.79,4.7,3.83,7.96,1.45,4.52,3.61,10.76,8.34,15.49,1.85,1.85,4.43,4.6,8.59,6.61,2.87,1.39,6.08,2.09,9.27,2.09s6.44-.74,9.31-2.13c2.68-1.3,4.94-3.05,6.8-4.9h0c4.67-4.68,6.28-9.72,7.7-14.17.81-2.53,1.58-4.92,2.84-6.8.13-.18.97-1.24,1.16-1.43,1.67-1.67,3.88-2.58,6.24-2.58s4.57.92,6.24,2.58c.21.21,1.05,1.26,1.17,1.45,1.22,1.83,2.12,4.13,2.77,6.65,1.42,5.49,4.77,11.22,9.49,15.94,4.93,4.93,10.65,7.72,15.24,9.19,3.13,1,5.83,1.87,7.58,3.61,1.66,1.66,2.58,3.88,2.58,6.24s-.92,4.57-2.58,6.24c-1.67,1.67-3.88,2.58-6.24,2.58s-4.57-.92-6.24-2.58c-1.89-1.89-2.79-4.7-3.83-7.96-1.45-4.52-3.61-10.76-8.34-15.49-1.85-1.85-4.43-4.6-8.59-6.61-2.87-1.39-6.08-2.09-9.27-2.09s-6.44.74-9.31,2.13c-2.68,1.3-4.94,3.05-6.8,4.9h0Z"/>
  <path class="cls-1" d="m128.25,135.09c0,3.5-2.84,6.34-6.34,6.34h-13.13c-1.06,0-1.93-.84-1.93-1.93s.88-1.9,1.93-1.9h13.13c1.39,0,2.51-1.12,2.51-2.5s-1.12-2.5-2.51-2.5h-9.99c-3.5,0-6.34-2.87-6.34-6.34s2.84-6.37,6.34-6.37h13.13c1.06,0,1.93.88,1.93,1.93s-.88,1.9-1.93,1.9h-13.13c-1.39,0-2.51,1.15-2.51,2.54s1.12,2.5,2.51,2.5h9.99c3.5,0,6.34,2.84,6.34,6.34Z"/>
  <path class="cls-1" d="m161.33,121.81v17.69c0,1.09-.85,1.93-1.9,1.93s-1.93-.84-1.93-1.93v-13.19l-9.57,9.21c-.69.69-1.96.69-2.66,0l-9.57-9.21v13.19c0,1.09-.88,1.93-1.93,1.93s-1.9-.84-1.9-1.93v-17.69c0-.79.45-1.48,1.15-1.78.72-.3,1.54-.15,2.08.39l11.5,11.05,11.5-11.05c.54-.54,1.36-.69,2.08-.39.69.3,1.15,1,1.15,1.78Z"/>
  <path class="cls-1" d="m190.71,138.71c.42.97,0,2.11-.97,2.54-.24.12-.51.18-.78.18-.72,0-1.42-.42-1.75-1.12l-6.7-14.76c-.51-1.12-1.66-1.81-2.87-1.81s-2.35.69-2.87,1.81l-6.73,14.76c-.42.97-1.57,1.39-2.54.94-.97-.42-1.39-1.57-.94-2.54l6.7-14.73c1.15-2.47,3.62-4.1,6.37-4.1s5.22,1.63,6.34,4.1l6.73,14.73Z"/>
  <path class="cls-2" d="m181.08,134.48c0,1.9-1.54,3.44-3.44,3.44s-3.44-1.54-3.44-3.44,1.54-3.44,3.44-3.44,3.44,1.54,3.44,3.44Z"/>
  <path class="cls-1" d="m218.3,139.49c0,1.09-.88,1.93-1.93,1.93h-3.08c-.54,0-1.06-.21-1.42-.6l-5.85-6.34h-8.27v5.01c0,1.09-.88,1.93-1.93,1.93s-1.9-.84-1.9-1.93v-6.94c0-1.06.85-1.93,1.9-1.93h13.46c1.9,0,3.47-1.54,3.47-3.44s-1.57-3.47-3.47-3.47h-13.46c-1.06,0-1.9-.84-1.9-1.9s.85-1.93,1.9-1.93h13.46c1.96,0,3.77.79,5.16,2.14,1.39,1.39,2.14,3.2,2.14,5.16s-.75,3.77-2.14,5.16c-.94.94-2.11,1.6-3.38,1.9l3.08,3.35h2.23c1.06,0,1.93.84,1.93,1.9Z"/>
  <path class="cls-1" d="m241.58,121.81c0,1.06-.85,1.9-1.9,1.9h-7.52v15.79c0,1.09-.85,1.93-1.9,1.93s-1.93-.84-1.93-1.93v-15.79h-7.49c-1.06,0-1.93-.84-1.93-1.9s.88-1.93,1.93-1.93h18.83c1.06,0,1.9.88,1.9,1.93Z"/>
  <g>
    <path class="cls-1" d="m113.45,149.83h-3.48v4.47h-1.21v-4.47h-3.48v-.98h8.16v.98Z"/>
    <path class="cls-1" d="m119.45,148.85c1.53,0,2.01.22,2.4.61.3.3.41.74.41,1.2s-.12.88-.44,1.21c-.3.3-.75.54-1.79.61l2.93,1.8v.02h-1.82l-2.88-1.81h-2.16v1.81h-1.21v-5.45h4.56Zm-3.35,2.69h3.37c.85,0,1.21-.12,1.4-.3.12-.12.19-.29.19-.55,0-.25-.07-.44-.21-.58-.19-.19-.51-.28-1.38-.28h-3.38v1.71Z"/>
    <path class="cls-1" d="m128.76,148.82l3.79,5.48h-1.39l-.87-1.28h-4.75l-.87,1.28h-1.33l3.79-5.48h1.63Zm-2.57,3.23h3.45l-1.73-2.54-1.72,2.54Z"/>
    <path class="cls-1" d="m140.41,153.24v-4.4h1.2v5.45h-1.69l-4.98-4.47v4.47h-1.2v-5.45h1.77l4.89,4.4Z"/>
    <path class="cls-1" d="m149.47,153.13c.11-.11.15-.24.15-.38,0-.16-.04-.29-.13-.38-.17-.17-.49-.24-2.41-.34-2.17-.11-2.83-.29-3.21-.66-.22-.22-.31-.52-.31-.91s.09-.77.38-1.07c.38-.38,1.13-.65,3.04-.65,1.52,0,2.66.22,3.39.51v1.02c-.82-.35-2.19-.61-3.39-.61-1.49,0-1.91.14-2.09.32-.09.09-.13.22-.13.37,0,.14.04.26.12.33.16.16.53.26,2.3.34,2.3.12,2.93.29,3.31.66.22.22.33.55.33.94s-.09.78-.38,1.07c-.39.39-1.16.69-3.2.69-1.51,0-2.99-.24-3.83-.61v-1.02c.81.39,2.53.71,3.83.71,1.53,0,2.02-.12,2.23-.34Z"/>
    <path class="cls-1" d="m159.34,151.17v.96h-5.6v2.16h-1.21v-5.45h6.91v.98h-5.7v1.35h5.6Z"/>
    <path class="cls-1" d="m168.62,149.66c.48.47.71,1.08.71,1.91s-.23,1.42-.71,1.91c-.52.52-1.54.97-3.58.97s-3.06-.45-3.57-.96-.72-1.09-.72-1.91.23-1.42.71-1.91c.53-.53,1.55-.97,3.58-.97s3.06.45,3.58.97Zm-6.19.63c-.3.3-.46.66-.46,1.28s.16.96.47,1.27c.34.34,1.12.66,2.6.66s2.26-.3,2.62-.66c.29-.29.45-.65.45-1.27s-.18-.97-.47-1.26c-.37-.37-1.14-.67-2.61-.67s-2.26.3-2.61.65Z"/>
    <path class="cls-1" d="m175.58,148.85c1.53,0,2.01.22,2.4.61.3.3.41.74.41,1.2s-.12.88-.44,1.21c-.3.3-.75.54-1.79.61l2.93,1.8v.02h-1.82l-2.88-1.81h-2.16v1.81h-1.21v-5.45h4.56Zm-3.35,2.69h3.37c.85,0,1.21-.12,1.4-.3.12-.12.19-.29.19-.55,0-.25-.07-.44-.21-.58-.19-.19-.51-.28-1.38-.28h-3.38v1.71Z"/>
    <path class="cls-1" d="m190.68,154.29h-1.21v-4.56l-3.16,4.56h-1.63l-3.16-4.56v4.56h-1.2v-5.45h1.97l3.23,4.7,3.24-4.7h1.92v5.45Z"/>
    <path class="cls-1" d="m197.29,148.82l3.79,5.48h-1.39l-.87-1.28h-4.75l-.87,1.28h-1.33l3.79-5.48h1.63Zm-2.57,3.23h3.45l-1.73-2.54-1.72,2.54Z"/>
    <path class="cls-1" d="m208.83,149.83h-3.48v4.47h-1.21v-4.47h-3.48v-.98h8.16v.98Z"/>
    <path class="cls-1" d="m210.34,154.29v-5.45h1.21v5.45h-1.21Z"/>
    <path class="cls-1" d="m221.17,149.66c.48.47.71,1.08.71,1.91s-.23,1.42-.71,1.91c-.52.52-1.54.97-3.58.97s-3.06-.45-3.57-.96-.72-1.09-.72-1.91.23-1.42.71-1.91c.53-.53,1.55-.97,3.58-.97s3.06.45,3.58.97Zm-6.19.63c-.3.3-.46.66-.46,1.28s.16.96.47,1.27c.34.34,1.12.66,2.6.66s2.26-.3,2.62-.66c.29-.29.45-.65.45-1.27s-.18-.97-.47-1.26c-.37-.37-1.14-.67-2.61-.67s-2.26.3-2.61.65Z"/>
    <path class="cls-1" d="m230.25,153.24v-4.4h1.2v5.45h-1.69l-4.98-4.47v4.47h-1.2v-5.45h1.77l4.89,4.4Z"/>
    <path class="cls-1" d="m239.31,153.13c.11-.11.15-.24.15-.38,0-.16-.04-.29-.13-.38-.17-.17-.49-.24-2.41-.34-2.17-.11-2.83-.29-3.21-.66-.22-.22-.31-.52-.31-.91s.09-.77.38-1.07c.38-.38,1.13-.65,3.04-.65,1.52,0,2.66.22,3.39.51v1.02c-.82-.35-2.19-.61-3.39-.61-1.49,0-1.91.14-2.09.32-.09.09-.13.22-.13.37,0,.14.04.26.12.33.16.16.53.26,2.3.34,2.3.12,2.93.29,3.31.66.22.22.33.55.33.94s-.09.78-.38,1.07c-.39.39-1.16.69-3.2.69-1.51,0-2.99-.24-3.83-.61v-1.02c.81.39,2.53.71,3.83.71,1.53,0,2.02-.12,2.23-.34Z"/>
  </g>
</svg>