<?xml version="1.0" encoding="UTF-8"?>
<svg id="ST_-_HOR_-_POS" data-name="ST - HOR - POS" xmlns="http://www.w3.org/2000/svg" viewBox="0 0 351.78 204.29">
  <defs>
    <style>
      .cls-1 {
        fill: #ff760d;
      }

      .cls-2 {
        fill: #073673;
      }
    </style>
  </defs>
  <path class="cls-1" d="m114.06,98.85l-4.99-1.89c-22.37-8.68-35.1-16.2-41.6-20.41-.39-.25-.95.22-.95.69,0,2.05.9,6.03,4.24,11.38.44.71,1.07,1.27,1.88,1.41,7.58,1.31,23.91,4.28,34.81,8.16l5.22,1.84c16.66,5.93,30.24,15.65,36.35,19.08.42.24.85-.16.78-.64-.83-5.96-2.8-8.93-3.89-10.66-.33-.52-.76-.94-1.36-1.04-3.55-.56-13.35-1.59-30.49-7.91Z"/>
  <path class="cls-2" d="m109.25,99.08c-4.67,4.67-6.28,9.71-7.7,14.16-.81,2.53-1.58,4.92-2.84,6.8-.13.18-.97,1.24-1.16,1.43-1.67,1.67-3.88,2.58-6.24,2.58s-4.57-.92-6.24-2.58c-.21-.21-1.05-1.26-1.17-1.45-1.22-1.83-2.12-4.13-2.77-6.65-1.42-5.49-4.77-11.22-9.49-15.94-4.93-4.93-10.65-7.72-15.24-9.19-3.13-1-5.83-1.87-7.58-3.61-1.66-1.66-2.58-3.88-2.58-6.24s.92-4.57,2.58-6.24c1.67-1.67,3.88-2.58,6.24-2.58s4.57.92,6.24,2.58c1.89,1.89,2.79,4.7,3.83,7.96,1.45,4.52,3.61,10.76,8.34,15.49,1.85,1.85,4.43,4.6,8.59,6.61,2.87,1.39,6.08,2.09,9.27,2.09s6.44-.74,9.31-2.13c2.68-1.3,4.94-3.05,6.8-4.9h0c4.67-4.68,6.28-9.72,7.7-14.17.81-2.53,1.58-4.92,2.84-6.8.13-.18.97-1.24,1.16-1.43,1.67-1.67,3.88-2.58,6.24-2.58s4.57.92,6.24,2.58c.21.21,1.05,1.26,1.17,1.45,1.22,1.83,2.12,4.13,2.77,6.65,1.42,5.49,4.77,11.22,9.49,15.94,4.93,4.93,10.65,7.72,15.24,9.19,3.13,1,5.83,1.87,7.58,3.61,1.66,1.66,2.58,3.88,2.58,6.24s-.92,4.57-2.58,6.24c-1.67,1.67-3.88,2.58-6.24,2.58s-4.57-.92-6.24-2.58c-1.89-1.89-2.79-4.7-3.83-7.96-1.45-4.52-3.61-10.76-8.34-15.49-1.85-1.85-4.43-4.6-8.59-6.61-2.87-1.39-6.08-2.09-9.27-2.09s-6.44.74-9.31,2.13c-2.68,1.3-4.94,3.05-6.8,4.9h0Z"/>
  <path class="cls-2" d="m203.36,96.71c0,3.22-2.61,5.83-5.83,5.83h-12.07c-.97,0-1.78-.78-1.78-1.78s.8-1.75,1.78-1.75h12.07c1.28,0,2.3-1.03,2.3-2.3s-1.03-2.3-2.3-2.3h-9.18c-3.22,0-5.83-2.64-5.83-5.83s2.61-5.85,5.83-5.85h12.07c.97,0,1.78.8,1.78,1.78s-.8,1.75-1.78,1.75h-12.07c-1.28,0-2.3,1.05-2.3,2.33s1.03,2.3,2.3,2.3h9.18c3.22,0,5.83,2.61,5.83,5.83Z"/>
  <path class="cls-2" d="m233.77,84.5v16.26c0,1-.78,1.78-1.75,1.78s-1.78-.78-1.78-1.78v-12.12l-8.79,8.46c-.64.64-1.8.64-2.44,0l-8.79-8.46v12.12c0,1-.8,1.78-1.78,1.78s-1.75-.78-1.75-1.78v-16.26c0-.72.42-1.36,1.05-1.64.67-.28,1.41-.14,1.91.36l10.57,10.15,10.57-10.15c.5-.5,1.25-.64,1.91-.36.64.28,1.05.91,1.05,1.64Z"/>
  <path class="cls-2" d="m260.77,100.03c.39.89,0,1.94-.89,2.33-.22.11-.47.17-.72.17-.67,0-1.3-.39-1.61-1.03l-6.16-13.57c-.47-1.03-1.53-1.66-2.64-1.66s-2.16.64-2.64,1.66l-6.19,13.57c-.39.89-1.44,1.28-2.33.86-.89-.39-1.28-1.44-.86-2.33l6.16-13.54c1.05-2.27,3.33-3.77,5.85-3.77s4.8,1.5,5.83,3.77l6.19,13.54Z"/>
  <path class="cls-1" d="m251.92,96.15c0,1.75-1.41,3.16-3.16,3.16s-3.16-1.41-3.16-3.16,1.42-3.16,3.16-3.16,3.16,1.42,3.16,3.16Z"/>
  <path class="cls-2" d="m286.13,100.76c0,1-.8,1.78-1.78,1.78h-2.83c-.5,0-.97-.19-1.3-.55l-5.38-5.83h-7.6v4.6c0,1-.8,1.78-1.78,1.78s-1.75-.78-1.75-1.78v-6.38c0-.97.78-1.78,1.75-1.78h12.37c1.75,0,3.19-1.42,3.19-3.16s-1.44-3.19-3.19-3.19h-12.37c-.97,0-1.75-.78-1.75-1.75s.78-1.78,1.75-1.78h12.37c1.8,0,3.47.72,4.74,1.97,1.28,1.28,1.97,2.94,1.97,4.74s-.69,3.47-1.97,4.74c-.86.86-1.94,1.47-3.11,1.75l2.83,3.08h2.05c.97,0,1.78.78,1.78,1.75Z"/>
  <path class="cls-2" d="m307.52,84.5c0,.97-.78,1.75-1.75,1.75h-6.91v14.51c0,1-.78,1.78-1.75,1.78s-1.78-.78-1.78-1.78v-14.51h-6.88c-.97,0-1.78-.78-1.78-1.75s.8-1.78,1.78-1.78h17.31c.97,0,1.75.8,1.75,1.78Z"/>
  <g>
    <path class="cls-2" d="m190.88,110h-3.14v4.03h-1.09v-4.03h-3.14v-.88h7.36v.88Z"/>
    <path class="cls-2" d="m196.3,109.11c1.38,0,1.81.2,2.16.55.27.27.37.67.37,1.08s-.11.79-.4,1.09c-.27.27-.67.49-1.61.55l2.64,1.62v.02h-1.64l-2.6-1.63h-1.94v1.63h-1.09v-4.91h4.11Zm-3.02,2.43h3.04c.76,0,1.09-.11,1.26-.27.11-.11.18-.26.18-.5,0-.22-.06-.39-.19-.52-.17-.17-.46-.25-1.24-.25h-3.05v1.54Z"/>
    <path class="cls-2" d="m204.7,109.08l3.42,4.94h-1.25l-.79-1.16h-4.29l-.79,1.16h-1.2l3.42-4.94h1.47Zm-2.32,2.91h3.11l-1.56-2.29-1.55,2.29Z"/>
    <path class="cls-2" d="m215.21,113.08v-3.97h1.08v4.91h-1.52l-4.49-4.04v4.04h-1.08v-4.91h1.6l4.42,3.97Z"/>
    <path class="cls-2" d="m223.38,112.98c.1-.1.13-.22.13-.34,0-.15-.04-.26-.12-.34-.15-.15-.44-.22-2.18-.31-1.96-.1-2.55-.26-2.89-.6-.2-.2-.28-.47-.28-.82s.08-.7.34-.96c.34-.34,1.02-.58,2.75-.58,1.37,0,2.4.2,3.05.46v.92c-.74-.32-1.98-.55-3.05-.55-1.34,0-1.73.13-1.89.29-.08.08-.12.2-.12.33,0,.13.04.23.11.3.15.15.48.23,2.08.31,2.07.11,2.65.26,2.98.6.2.2.3.5.3.85s-.08.7-.34.97c-.35.35-1.05.62-2.88.62-1.36,0-2.7-.22-3.45-.55v-.92c.73.35,2.28.64,3.45.64,1.38,0,1.82-.11,2.01-.31Z"/>
    <path class="cls-2" d="m232.29,111.21v.87h-5.05v1.94h-1.09v-4.91h6.23v.88h-5.14v1.21h5.05Z"/>
    <path class="cls-2" d="m240.66,109.85c.43.43.64.98.64,1.72s-.2,1.29-.64,1.72c-.47.47-1.39.88-3.23.88s-2.76-.41-3.22-.87c-.44-.44-.65-.98-.65-1.73s.2-1.28.64-1.72c.48-.48,1.4-.88,3.23-.88s2.76.41,3.23.88Zm-5.59.57c-.27.27-.41.6-.41,1.15s.15.86.43,1.14c.31.31,1.01.6,2.34.6s2.04-.27,2.37-.6c.26-.26.41-.59.41-1.14s-.16-.88-.42-1.14c-.33-.33-1.02-.6-2.35-.6s-2.04.27-2.36.59Z"/>
    <path class="cls-2" d="m246.94,109.11c1.38,0,1.81.2,2.16.55.27.27.37.67.37,1.08s-.11.79-.4,1.09c-.27.27-.67.49-1.61.55l2.64,1.62v.02h-1.64l-2.6-1.63h-1.94v1.63h-1.09v-4.91h4.11Zm-3.02,2.43h3.04c.76,0,1.09-.11,1.26-.27.11-.11.18-.26.18-.5,0-.22-.06-.39-.19-.52-.17-.17-.46-.25-1.24-.25h-3.05v1.54Z"/>
    <path class="cls-2" d="m260.56,114.02h-1.09v-4.11l-2.85,4.11h-1.47l-2.85-4.11v4.11h-1.08v-4.91h1.78l2.91,4.24,2.92-4.24h1.73v4.91Z"/>
    <path class="cls-2" d="m266.53,109.08l3.42,4.94h-1.25l-.79-1.16h-4.29l-.79,1.16h-1.2l3.42-4.94h1.47Zm-2.32,2.91h3.11l-1.56-2.29-1.55,2.29Z"/>
    <path class="cls-2" d="m276.93,110h-3.14v4.03h-1.09v-4.03h-3.14v-.88h7.36v.88Z"/>
    <path class="cls-2" d="m278.3,114.02v-4.91h1.09v4.91h-1.09Z"/>
    <path class="cls-2" d="m288.08,109.85c.43.43.64.98.64,1.72s-.2,1.29-.64,1.72c-.47.47-1.39.88-3.23.88s-2.76-.41-3.22-.87c-.44-.44-.65-.98-.65-1.73s.2-1.28.64-1.72c.48-.48,1.4-.88,3.23-.88s2.76.41,3.23.88Zm-5.59.57c-.27.27-.41.6-.41,1.15s.15.86.43,1.14c.31.31,1.01.6,2.34.6s2.04-.27,2.37-.6c.26-.26.41-.59.41-1.14s-.16-.88-.42-1.14c-.33-.33-1.02-.6-2.35-.6s-2.04.27-2.36.59Z"/>
    <path class="cls-2" d="m296.26,113.08v-3.97h1.08v4.91h-1.52l-4.49-4.04v4.04h-1.08v-4.91h1.6l4.42,3.97Z"/>
    <path class="cls-2" d="m304.43,112.98c.1-.1.13-.22.13-.34,0-.15-.04-.26-.12-.34-.15-.15-.44-.22-2.18-.31-1.96-.1-2.55-.26-2.89-.6-.2-.2-.28-.47-.28-.82s.08-.7.34-.96c.34-.34,1.02-.58,2.74-.58,1.37,0,2.4.2,3.05.46v.92c-.74-.32-1.98-.55-3.05-.55-1.34,0-1.73.13-1.89.29-.08.08-.12.2-.12.33,0,.13.04.23.11.3.15.15.48.23,2.08.31,2.07.11,2.65.26,2.98.6.2.2.3.5.3.85s-.08.7-.34.97c-.35.35-1.05.62-2.88.62-1.36,0-2.7-.22-3.45-.55v-.92c.73.35,2.28.64,3.45.64,1.38,0,1.82-.11,2.01-.31Z"/>
  </g>
</svg>